<svg xmlns="http://www.w3.org/2000/svg" viewBox="0 0 48 48" width="48px" height="48px">
  <path fill="#4285F4" d="M24 9.5c3.5 0 6.3 1.3 8.5 3.4l6.2-6.2C34.7 3.2 29.7 1 24 1 14.4 1 6.4 6.7 3 14.6l7.5 5.8c2.2-6.3 8.2-10.9 13.5-10.9z"/>
  <path fill="#34A853" d="M24 48c6.6 0 12.2-2.1 16.3-5.8L32.7 36c-2.3 1.5-5.3 2.5-8.7 2.5-5.8 0-10.8-4.2-12.5-9.8L4.1 34.5C7.7 42.1 15.3 48 24 48z"/>
  <path fill="#FBBC05" d="M44.6 24.5C44.6 23.6 44.5 22.8 44.4 22h-20v8.5h11.6c-1 4.4-3.8 7.5-7.5 9.5l7.5 5.8c4.4-4 7.6-10 7.6-17.3z"/>
  <path fill="#EA4335" d="M11.5 29c-.5-1.5-.8-3.1-.8-5s.3-3.5.8-5L4 13.2C2.6 16.2 2 19.5 2 23s.6 6.8 2 9.8l7.5-5.8z"/>
</svg>
